<svg width="24" height="24" viewBox="0 0 24 24" fill="black" xmlns="http://www.w3.org/2000/svg">
<g clip-path="url(#clip0_156_2456)">
<path opacity="0.06" fill-rule="evenodd" clip-rule="evenodd" d="M12 5.57143C10.295 5.57143 8.65991 6.24872 7.45431 7.45431C6.24872 8.65991 5.57143 10.295 5.57143 12C5.57143 13.705 6.24872 15.3401 7.45431 16.5457C8.65991 17.7513 10.295 18.4286 12 18.4286C13.705 18.4286 15.3401 17.7513 16.5457 16.5457C17.7513 15.3401 18.4286 13.705 18.4286 12C18.4286 10.295 17.7513 8.65991 16.5457 7.45431C15.3401 6.24872 13.705 5.57143 12 5.57143ZM3 12C3 7.02943 7.02943 3 12 3C16.9706 3 21 7.02943 21 12C21 16.9706 16.9706 21 12 21C7.02943 21 3 16.9706 3 12Z" fill="black"/>
<path fill-rule="evenodd" clip-rule="evenodd" d="M12 5.57144C10.3425 5.56771 8.74846 6.20787 7.55395 7.35687C7.30648 7.58569 6.97904 7.70818 6.64214 7.69797C6.30525 7.68775 5.98583 7.54566 5.75267 7.30227C5.5195 7.05888 5.39124 6.73366 5.39549 6.39664C5.39974 6.05961 5.53616 5.73773 5.77538 5.5003C7.44846 3.89269 9.6797 2.99644 12 3.00001C12.3409 3.00001 12.668 3.13547 12.9091 3.37659C13.1502 3.61771 13.2857 3.94473 13.2857 4.28573C13.2857 4.62672 13.1502 4.95374 12.9091 5.19486C12.668 5.43598 12.3409 5.57144 12 5.57144Z"/>
</g>
<defs>
<clipPath id="clip0_156_2456">
<rect width="24" height="24" fill="white"/>
</clipPath>
</defs>
</svg>
