<svg width="1185" height="720" viewBox="0 0 1185 720" fill="none" xmlns="http://www.w3.org/2000/svg">
<g clip-path="url(#clip0_179_2456)">
<rect width="1185" height="720" fill="#336BEA"/>
<g opacity="0.4">
<path fill-rule="evenodd" clip-rule="evenodd" d="M1663.61 -990.566C1924.46 -251.176 1688.45 -920.148 1949.31 -180.758C2210.17 558.631 2101.63 798.752 1384.93 1067.87C668.233 1336.98 1316.68 1093.5 599.976 1362.61C-116.724 1631.73 -349.476 1519.76 -610.333 780.37C-871.19 40.9801 -635.176 709.952 -896.034 -29.4379C-1156.89 -768.827 -1048.36 -1008.95 -331.658 -1278.06C385.042 -1547.18 53.084 -1422.53 453.299 -1572.81C1170 -1841.92 1402.75 -1729.95 1663.61 -990.566Z" stroke="#B1D6FF" stroke-width="4"/>
<path fill-rule="evenodd" clip-rule="evenodd" d="M1373.04 -892.688C1630.95 -322.099 1397.61 -838.346 1655.51 -267.757C1913.42 302.831 1843.14 502.036 1290.06 768.105C736.98 1034.18 1237.38 793.445 684.306 1059.52C131.227 1325.59 -61.8645 1253.08 -319.769 682.492C-577.674 111.903 -344.332 628.15 -602.237 57.5616C-860.141 -513.027 -789.862 -712.231 -236.783 -978.301C316.296 -1244.37 60.1228 -1121.13 368.97 -1269.71C922.048 -1535.78 1115.14 -1463.28 1373.04 -892.688Z" stroke="#B1D6FF" stroke-width="4"/>
<path fill-rule="evenodd" clip-rule="evenodd" d="M1148.08 -793.795C1392.23 -357.525 1171.33 -752.245 1415.49 -315.975C1659.64 120.295 1617.08 284.141 1194.2 536.021C771.317 787.902 1153.93 560.01 731.043 811.891C308.161 1063.77 149.343 1019.87 -94.8079 583.599C-338.959 147.329 -118.06 542.049 -362.212 105.779C-606.363 -330.491 -563.808 -494.336 -140.925 -746.217C281.957 -998.098 86.0879 -881.433 322.231 -1022.09C745.113 -1273.97 903.931 -1230.06 1148.08 -793.795Z" stroke="#B1D6FF" stroke-width="4"/>
<path fill-rule="evenodd" clip-rule="evenodd" d="M975.13 -698.362C1199.08 -368.402 996.458 -666.937 1220.41 -336.978C1444.36 -7.01811 1421.53 126.553 1101.69 357.593C781.861 588.634 1071.23 379.597 751.401 610.637C431.567 841.678 302.094 818.125 78.1442 488.166C-145.806 158.206 56.8156 456.741 -167.134 126.782C-391.085 -203.178 -368.255 -336.749 -48.4211 -567.789C271.413 -798.83 123.273 -691.817 301.873 -820.833C621.707 -1051.87 751.179 -1028.32 975.13 -698.362Z" stroke="#B1D6FF" stroke-width="4"/>
<path fill-rule="evenodd" clip-rule="evenodd" d="M843.87 -610.005C1044.59 -363.229 862.986 -586.502 1063.7 -339.726C1264.42 -92.95 1255.25 15.1086 1016.05 222.178C776.846 429.248 993.268 241.899 754.065 448.969C514.862 656.039 410.119 646.585 209.404 399.809C8.68825 153.033 190.288 376.306 -10.4275 129.53C-211.143 -117.246 -201.979 -225.305 37.2242 -432.374C276.428 -639.444 165.634 -543.535 299.209 -659.165C538.412 -866.235 643.155 -856.781 843.87 -610.005Z" stroke="#B1D6FF" stroke-width="4"/>
<path fill-rule="evenodd" clip-rule="evenodd" d="M745.334 -530.306C921.973 -348.074 762.156 -512.95 938.796 -330.718C1115.44 -148.486 1115.44 -61.7094 938.796 120.522C762.156 302.754 921.973 137.878 745.334 320.11C568.694 502.342 484.58 502.342 307.94 320.11C131.3 137.878 291.117 302.754 114.478 120.522C-62.162 -61.7094 -62.162 -148.486 114.478 -330.718C291.117 -512.95 209.302 -428.545 307.94 -530.306C484.58 -712.537 568.694 -712.537 745.334 -530.306Z" stroke="#B1D6FF" stroke-width="4"/>
<path fill-rule="evenodd" clip-rule="evenodd" d="M672.048 -459.352C824.987 -326.958 686.613 -446.743 839.553 -314.349C992.492 -181.954 998.351 -112.865 870.02 44.9162C741.688 202.698 857.798 59.943 729.466 217.724C601.135 375.506 534.166 381.55 381.226 249.156C228.287 116.762 366.661 236.547 213.721 104.153C60.7817 -28.2415 54.9227 -97.3309 183.254 -255.112C311.586 -412.894 252.146 -339.813 323.808 -427.92C452.139 -585.702 519.108 -591.746 672.048 -459.352Z" stroke="#B1D6FF" stroke-width="4"/>
<path fill-rule="evenodd" clip-rule="evenodd" d="M618.637 -398.063C749.552 -303.493 631.105 -389.056 762.02 -294.487C892.934 -199.917 902.279 -145.244 810.611 -10.1851C718.944 124.874 801.881 2.67769 710.214 137.737C618.547 272.796 565.551 282.436 434.637 187.867C303.722 93.2974 422.169 178.86 291.254 84.2908C160.34 -10.2785 150.995 -64.9519 242.663 -200.011C334.33 -335.07 291.872 -272.514 343.06 -347.933C434.727 -482.992 487.723 -492.632 618.637 -398.063Z" stroke="#B1D6FF" stroke-width="4"/>
<path fill-rule="evenodd" clip-rule="evenodd" d="M580.157 -345.196C690.882 -279.245 590.702 -338.915 701.427 -272.964C812.151 -207.013 823.294 -164.113 759.367 -49.8835C695.44 64.3463 753.279 -39.0045 689.352 75.2254C625.425 189.455 583.841 200.95 473.117 135C362.392 69.049 462.572 128.719 351.847 62.768C241.123 -3.18265 229.981 -46.0828 293.907 -160.313C357.834 -274.542 328.225 -221.634 363.922 -285.421C427.849 -399.651 469.433 -411.146 580.157 -345.196Z" stroke="#B1D6FF" stroke-width="4"/>
<path fill-rule="evenodd" clip-rule="evenodd" d="M553.063 -300.295C645.763 -255.7 561.892 -296.048 654.591 -251.453C747.291 -206.858 759.071 -173.47 715.844 -77.8352C672.617 17.7993 711.727 -68.7271 668.501 26.9074C625.274 122.542 592.91 134.694 500.211 90.099C407.511 45.5039 491.382 85.8519 398.682 41.2568C305.983 -3.33832 294.203 -36.7263 337.43 -132.361C380.657 -227.995 360.635 -183.7 384.773 -237.103C428 -332.738 460.363 -344.89 553.063 -300.295Z" stroke="#B1D6FF" stroke-width="4"/>
<path fill-rule="evenodd" clip-rule="evenodd" d="M534.487 -262.184C611.193 -233.381 541.792 -259.44 618.499 -230.638C695.206 -201.835 706.822 -176.135 678.903 -97.0001C650.984 -17.8649 676.244 -89.4634 648.325 -10.3282C620.406 68.8069 595.495 80.7908 518.788 51.988C442.082 23.1851 511.483 49.2449 434.776 20.442C358.069 -8.36084 346.453 -34.0604 374.372 -113.196C402.291 -192.331 389.36 -155.677 404.95 -199.867C432.869 -279.003 457.78 -290.986 534.487 -262.184Z" stroke="#B1D6FF" stroke-width="4"/>
<path fill-rule="evenodd" clip-rule="evenodd" d="M522.269 -231.042C585.443 -213.579 528.286 -229.379 591.459 -211.916C654.633 -194.453 665.644 -174.777 648.717 -109.604C631.789 -44.4304 647.104 -103.397 630.177 -38.2234C613.25 26.95 594.178 38.3097 531.005 20.8465C467.831 3.38328 524.988 19.1833 461.815 1.72012C398.641 -15.7431 387.63 -35.4185 404.558 -100.592C421.485 -165.765 413.645 -135.579 423.097 -171.972C440.024 -237.146 459.096 -248.506 522.269 -231.042Z" stroke="#B1D6FF" stroke-width="4"/>
<path fill-rule="evenodd" clip-rule="evenodd" d="M514.689 -204.78C566.022 -195.442 519.578 -203.89 570.911 -194.553C622.244 -185.215 632.311 -170.382 623.26 -117.424C614.209 -64.4658 622.398 -112.38 613.347 -59.4222C604.295 -6.464 589.918 3.92177 538.585 -5.41619C487.252 -14.7541 533.696 -6.30551 482.363 -15.6435C431.03 -24.9814 420.963 -39.8138 430.014 -92.772C439.066 -145.73 434.873 -121.201 439.928 -150.774C448.979 -203.732 463.356 -214.118 514.689 -204.78Z" stroke="#B1D6FF" stroke-width="4"/>
</g>
<path d="M233.52 301H255.64L225.54 399H206.64L184.66 344.12L163.52 399H144.62L113.68 301H136.22L155.4 366.1L181.16 301.98H188.3L214.76 366.1L233.52 301ZM296.823 401.1C289.076 401.1 282.076 399.373 275.823 395.92C269.57 392.467 264.67 387.707 261.123 381.64C257.67 375.48 255.943 368.667 255.943 361.2C255.943 349.72 259.816 340.2 267.563 332.64C275.31 325.08 285.063 321.3 296.823 321.3C308.49 321.3 318.196 325.08 325.943 332.64C333.69 340.2 337.563 349.72 337.563 361.2C337.563 372.587 333.643 382.107 325.803 389.76C318.056 397.32 308.396 401.1 296.823 401.1ZM296.823 381.92C302.703 381.92 307.51 380.007 311.243 376.18C314.976 372.26 316.843 367.267 316.843 361.2C316.843 355.133 314.976 350.187 311.243 346.36C307.51 342.44 302.656 340.48 296.683 340.48C290.803 340.48 285.996 342.44 282.263 346.36C278.53 350.187 276.663 355.133 276.663 361.2C276.663 364.187 277.13 366.987 278.063 369.6C279.09 372.213 280.49 374.407 282.263 376.18C284.036 377.953 286.136 379.353 288.563 380.38C291.083 381.407 293.836 381.92 296.823 381.92ZM388.288 401.1C380.541 401.1 373.541 399.373 367.288 395.92C361.034 392.467 356.134 387.707 352.588 381.64C349.134 375.48 347.408 368.667 347.408 361.2C347.408 349.72 351.281 340.2 359.028 332.64C366.774 325.08 376.528 321.3 388.288 321.3C399.954 321.3 409.661 325.08 417.408 332.64C425.154 340.2 429.028 349.72 429.028 361.2C429.028 372.587 425.108 382.107 417.268 389.76C409.521 397.32 399.861 401.1 388.288 401.1ZM388.288 381.92C394.168 381.92 398.974 380.007 402.708 376.18C406.441 372.26 408.308 367.267 408.308 361.2C408.308 355.133 406.441 350.187 402.708 346.36C398.974 342.44 394.121 340.48 388.148 340.48C382.268 340.48 377.461 342.44 373.728 346.36C369.994 350.187 368.128 355.133 368.128 361.2C368.128 364.187 368.594 366.987 369.528 369.6C370.554 372.213 371.954 374.407 373.728 376.18C375.501 377.953 377.601 379.353 380.028 380.38C382.548 381.407 385.301 381.92 388.288 381.92ZM484.933 321.3C496.413 321.3 505.886 325.08 513.353 332.64C520.913 340.2 524.693 349.72 524.693 361.2C524.693 372.68 520.913 382.2 513.353 389.76C505.886 397.32 496.413 401.1 484.933 401.1C475.879 401.1 467.993 398.3 461.273 392.7L458.893 399H443.773V296.1H464.213V327.46C470.279 323.353 477.186 321.3 484.933 321.3ZM468.553 375.9C472.473 379.82 477.373 381.78 483.253 381.78C489.226 381.78 494.126 379.82 497.953 375.9C501.873 371.98 503.833 367.08 503.833 361.2C503.833 357.28 502.946 353.733 501.173 350.56C499.493 347.387 497.066 344.913 493.893 343.14C490.719 341.367 487.173 340.48 483.253 340.48C479.426 340.48 475.926 341.367 472.753 343.14C469.579 344.913 467.106 347.387 465.333 350.56C463.559 353.733 462.673 357.28 462.673 361.2C462.673 367.08 464.633 371.98 468.553 375.9ZM539.339 399V296.1H559.779V399H539.339ZM652.758 360.92C652.758 362.88 652.618 364.887 652.338 366.94H595.218C596.058 372.073 598.064 376.04 601.238 378.84C604.504 381.547 608.658 382.9 613.698 382.9C617.151 382.9 620.278 382.153 623.078 380.66C625.878 379.073 628.071 376.927 629.658 374.22H651.218C648.418 382.433 643.658 388.967 636.938 393.82C630.218 398.673 622.471 401.1 613.698 401.1C602.498 401.1 593.164 397.273 585.698 389.62C578.231 381.967 574.498 372.493 574.498 361.2C574.498 356.72 575.104 352.427 576.318 348.32C577.624 344.213 579.444 340.527 581.778 337.26C584.204 333.993 587.004 331.193 590.178 328.86C593.351 326.433 596.944 324.567 600.958 323.26C604.971 321.953 609.218 321.3 613.698 321.3C621.258 321.3 628.024 323.073 633.998 326.62C640.064 330.167 644.684 334.973 647.858 341.04C651.124 347.107 652.758 353.733 652.758 360.92ZM613.698 338.66C609.124 338.66 605.251 339.92 602.078 342.44C598.998 344.96 596.898 348.46 595.778 352.94H632.318C631.384 349.86 630.031 347.293 628.258 345.24C626.484 343.093 624.338 341.46 621.818 340.34C619.391 339.22 616.684 338.66 613.698 338.66ZM700.804 313.32V294.28H721.244V313.32H700.804ZM700.804 399V323.4H721.244V399H700.804ZM776.003 401.1C768.536 401.1 761.723 399.373 755.563 395.92C749.496 392.373 744.689 387.52 741.143 381.36C737.689 375.2 735.963 368.387 735.963 360.92C735.963 349.627 739.789 340.2 747.443 332.64C755.096 325.08 764.663 321.3 776.143 321.3C785.943 321.3 794.343 324.147 801.343 329.84C808.343 335.44 812.776 342.907 814.643 352.24H794.343C792.663 348.6 790.189 345.753 786.923 343.7C783.749 341.553 780.109 340.48 776.003 340.48C770.496 340.48 765.876 342.44 762.143 346.36C758.503 350.28 756.683 355.18 756.683 361.06C756.683 366.94 758.549 371.887 762.283 375.9C766.016 379.913 770.589 381.92 776.003 381.92C780.109 381.92 783.749 380.847 786.923 378.7C790.096 376.46 792.569 373.287 794.343 369.18H814.923C813.056 378.793 808.576 386.54 801.483 392.42C794.389 398.207 785.896 401.1 776.003 401.1ZM864.343 401.1C856.596 401.1 849.596 399.373 843.343 395.92C837.089 392.467 832.189 387.707 828.643 381.64C825.189 375.48 823.463 368.667 823.463 361.2C823.463 349.72 827.336 340.2 835.083 332.64C842.829 325.08 852.583 321.3 864.343 321.3C876.009 321.3 885.716 325.08 893.463 332.64C901.209 340.2 905.083 349.72 905.083 361.2C905.083 372.587 901.163 382.107 893.323 389.76C885.576 397.32 875.916 401.1 864.343 401.1ZM864.343 381.92C870.223 381.92 875.029 380.007 878.763 376.18C882.496 372.26 884.363 367.267 884.363 361.2C884.363 355.133 882.496 350.187 878.763 346.36C875.029 342.44 870.176 340.48 864.203 340.48C858.323 340.48 853.516 342.44 849.783 346.36C846.049 350.187 844.183 355.133 844.183 361.2C844.183 364.187 844.649 366.987 845.583 369.6C846.609 372.213 848.009 374.407 849.783 376.18C851.556 377.953 853.656 379.353 856.083 380.38C858.603 381.407 861.356 381.92 864.343 381.92ZM962.947 321.58C971.534 321.58 978.301 324.473 983.247 330.26C988.287 335.953 990.807 343.607 990.807 353.22V399H970.367V356.44C970.367 345.147 965.981 339.5 957.207 339.5C953.754 339.5 950.721 340.293 948.107 341.88C945.587 343.467 943.627 345.753 942.227 348.74C940.921 351.727 940.267 355.227 940.267 359.24V399H919.827V323.4H933.827L937.887 332.78C939.287 331.007 940.874 329.467 942.647 328.16C944.514 326.76 946.521 325.593 948.667 324.66C950.814 323.633 953.054 322.887 955.387 322.42C957.814 321.86 960.334 321.58 962.947 321.58ZM1036.39 401.1C1030.14 401.1 1024.59 399.98 1019.73 397.74C1014.97 395.5 1011.24 392.327 1008.53 388.22C1005.92 384.113 1004.61 379.4 1004.61 374.08H1024.49C1024.59 376.32 1025.15 378.233 1026.17 379.82C1027.29 381.313 1028.79 382.433 1030.65 383.18C1032.52 383.833 1034.67 384.16 1037.09 384.16C1039.05 384.16 1040.83 383.88 1042.41 383.32C1044 382.76 1045.31 381.92 1046.33 380.8C1047.36 379.587 1047.87 378.187 1047.87 376.6C1047.87 374.267 1046.66 372.54 1044.23 371.42C1041.81 370.3 1038.17 369.32 1033.31 368.48C1030.23 368.013 1027.67 367.547 1025.61 367.08C1023.65 366.613 1021.27 365.82 1018.47 364.7C1015.77 363.487 1013.57 362.133 1011.89 360.64C1010.31 359.147 1008.91 357.093 1007.69 354.48C1006.48 351.867 1005.87 348.833 1005.87 345.38C1005.87 338.287 1008.67 332.5 1014.27 328.02C1019.87 323.54 1027.2 321.3 1036.25 321.3C1045.4 321.3 1052.73 323.633 1058.23 328.3C1063.83 332.873 1066.63 338.94 1066.63 346.5H1047.17C1047.17 340.527 1043.39 337.54 1035.83 337.54C1032.66 337.54 1030.19 338.193 1028.41 339.5C1026.64 340.807 1025.75 342.58 1025.75 344.82C1025.75 345.753 1025.99 346.64 1026.45 347.48C1027.01 348.227 1027.62 348.833 1028.27 349.3C1029.02 349.767 1030.14 350.233 1031.63 350.7C1033.13 351.073 1034.39 351.353 1035.41 351.54C1036.44 351.727 1037.98 352.007 1040.03 352.38C1041.81 352.753 1043.07 353.033 1043.81 353.22C1044.56 353.313 1045.82 353.547 1047.59 353.92C1049.37 354.293 1050.67 354.667 1051.51 355.04C1052.45 355.32 1053.66 355.74 1055.15 356.3C1056.74 356.86 1057.91 357.467 1058.65 358.12C1059.49 358.68 1060.47 359.38 1061.59 360.22C1062.81 361.06 1063.74 361.993 1064.39 363.02C1065.05 364.047 1065.7 365.167 1066.35 366.38C1067.01 367.593 1067.43 368.993 1067.61 370.58C1067.89 372.167 1068.03 373.847 1068.03 375.62C1068.03 383.367 1065.14 389.573 1059.35 394.24C1053.57 398.813 1045.91 401.1 1036.39 401.1Z" fill="white"/>
<path d="M438.76 503.48C436.573 505.56 433.813 506.6 430.48 506.6C427.147 506.6 424.387 505.56 422.2 503.48C420.013 501.4 418.92 498.733 418.92 495.48V478H425V495.2C425 496.907 425.507 498.28 426.52 499.32C427.533 500.36 428.853 500.88 430.48 500.88C432.107 500.88 433.427 500.36 434.44 499.32C435.48 498.28 436 496.907 436 495.2V478H442.04V495.48C442.04 498.733 440.947 501.4 438.76 503.48ZM448.145 506V478H454.225V506H448.145ZM474.857 499.32C473.417 499.32 472.217 498.84 471.257 497.88C470.297 496.92 469.817 495.72 469.817 494.28C469.817 493.32 470.03 492.453 470.457 491.68C470.91 490.907 471.523 490.307 472.297 489.88C473.07 489.453 473.923 489.24 474.857 489.24C476.297 489.24 477.497 489.72 478.457 490.68C479.417 491.64 479.897 492.84 479.897 494.28C479.897 495.72 479.417 496.92 478.457 497.88C477.497 498.84 476.297 499.32 474.857 499.32ZM495.089 506V476.6H500.929V506H495.089ZM506.534 481.52V476.08H512.374V481.52H506.534ZM506.534 506V484.4H512.374V506H506.534ZM529.74 483.8C533.02 483.8 535.726 484.88 537.86 487.04C540.02 489.2 541.1 491.92 541.1 495.2C541.1 498.48 540.02 501.2 537.86 503.36C535.726 505.52 533.02 506.6 529.74 506.6C527.153 506.6 524.9 505.8 522.98 504.2L522.3 506H517.98V476.6H523.82V485.56C525.553 484.387 527.526 483.8 529.74 483.8ZM525.06 499.4C526.18 500.52 527.58 501.08 529.26 501.08C530.966 501.08 532.366 500.52 533.46 499.4C534.58 498.28 535.14 496.88 535.14 495.2C535.14 494.08 534.886 493.067 534.38 492.16C533.9 491.253 533.206 490.547 532.3 490.04C531.393 489.533 530.38 489.28 529.26 489.28C528.166 489.28 527.166 489.533 526.26 490.04C525.353 490.547 524.646 491.253 524.14 492.16C523.633 493.067 523.38 494.08 523.38 495.2C523.38 496.88 523.94 498.28 525.06 499.4ZM556.324 484.28H558.244V489.8H555.724C554.071 489.8 552.884 490.187 552.164 490.96C551.471 491.733 551.124 493 551.124 494.76V506H545.284V484.4H549.044L550.084 487.04C551.551 485.2 553.631 484.28 556.324 484.28ZM578.745 484.36H583.105V505.96H578.505L578.025 504.04C576.051 505.747 573.718 506.6 571.025 506.6C567.771 506.6 565.065 505.52 562.905 503.36C560.771 501.173 559.705 498.44 559.705 495.16C559.705 491.907 560.771 489.2 562.905 487.04C565.065 484.88 567.771 483.8 571.025 483.8C573.771 483.8 576.131 484.68 578.105 486.44L578.745 484.36ZM567.265 499.4C568.385 500.52 569.785 501.08 571.465 501.08C573.171 501.08 574.585 500.52 575.705 499.4C576.825 498.28 577.385 496.867 577.385 495.16C577.385 493.453 576.825 492.04 575.705 490.92C574.585 489.8 573.185 489.24 571.505 489.24C570.385 489.24 569.371 489.507 568.465 490.04C567.585 490.547 566.891 491.253 566.385 492.16C565.878 493.04 565.625 494.04 565.625 495.16C565.625 496.867 566.171 498.28 567.265 499.4ZM599.762 484.28H601.682V489.8H599.162C597.509 489.8 596.322 490.187 595.602 490.96C594.909 491.733 594.562 493 594.562 494.76V506H588.722V484.4H592.482L593.522 487.04C594.989 485.2 597.069 484.28 599.762 484.28ZM619.931 484.4H626.171L616.731 505.72C615.398 508.707 614.038 510.8 612.651 512C611.264 513.2 609.384 513.8 607.011 513.8H604.611V508.52H606.651C608.038 508.52 609.024 508.267 609.611 507.76C610.198 507.253 610.838 506.173 611.531 504.52L611.611 504.36L602.451 484.4H608.811L614.571 497.68L619.931 484.4ZM642.708 499.32C641.268 499.32 640.068 498.84 639.108 497.88C638.148 496.92 637.668 495.72 637.668 494.28C637.668 493.32 637.881 492.453 638.308 491.68C638.761 490.907 639.375 490.307 640.148 489.88C640.921 489.453 641.775 489.24 642.708 489.24C644.148 489.24 645.348 489.72 646.308 490.68C647.268 491.64 647.748 492.84 647.748 494.28C647.748 495.72 647.268 496.92 646.308 497.88C645.348 498.84 644.148 499.32 642.708 499.32ZM662.941 481.52V476.08H668.781V481.52H662.941ZM662.941 506V484.4H668.781V506H662.941ZM684.426 506.6C682.293 506.6 680.346 506.107 678.586 505.12C676.853 504.107 675.479 502.72 674.466 500.96C673.479 499.2 672.986 497.253 672.986 495.12C672.986 491.893 674.079 489.2 676.266 487.04C678.453 484.88 681.186 483.8 684.466 483.8C687.266 483.8 689.666 484.613 691.666 486.24C693.666 487.84 694.933 489.973 695.466 492.64H689.666C689.186 491.6 688.479 490.787 687.546 490.2C686.639 489.587 685.599 489.28 684.426 489.28C682.853 489.28 681.533 489.84 680.466 490.96C679.426 492.08 678.906 493.48 678.906 495.16C678.906 496.84 679.439 498.253 680.506 499.4C681.573 500.547 682.879 501.12 684.426 501.12C685.599 501.12 686.639 500.813 687.546 500.2C688.453 499.56 689.159 498.653 689.666 497.48H695.546C695.013 500.227 693.733 502.44 691.706 504.12C689.679 505.773 687.253 506.6 684.426 506.6ZM709.666 506.6C707.453 506.6 705.453 506.107 703.666 505.12C701.879 504.133 700.479 502.773 699.466 501.04C698.479 499.28 697.986 497.333 697.986 495.2C697.986 491.92 699.093 489.2 701.306 487.04C703.519 484.88 706.306 483.8 709.666 483.8C712.999 483.8 715.773 484.88 717.986 487.04C720.199 489.2 721.306 491.92 721.306 495.2C721.306 498.453 720.186 501.173 717.946 503.36C715.733 505.52 712.973 506.6 709.666 506.6ZM709.666 501.12C711.346 501.12 712.719 500.573 713.786 499.48C714.853 498.36 715.386 496.933 715.386 495.2C715.386 493.467 714.853 492.053 713.786 490.96C712.719 489.84 711.333 489.28 709.626 489.28C707.946 489.28 706.573 489.84 705.506 490.96C704.439 492.053 703.906 493.467 703.906 495.2C703.906 496.053 704.039 496.853 704.306 497.6C704.599 498.347 704.999 498.973 705.506 499.48C706.013 499.987 706.613 500.387 707.306 500.68C708.026 500.973 708.813 501.12 709.666 501.12ZM737.839 483.88C740.292 483.88 742.225 484.707 743.639 486.36C745.079 487.987 745.799 490.173 745.799 492.92V506H739.959V493.84C739.959 490.613 738.705 489 736.199 489C735.212 489 734.345 489.227 733.599 489.68C732.879 490.133 732.319 490.787 731.919 491.64C731.545 492.493 731.359 493.493 731.359 494.64V506H725.519V484.4H729.519L730.679 487.08C731.079 486.573 731.532 486.133 732.039 485.76C732.572 485.36 733.145 485.027 733.759 484.76C734.372 484.467 735.012 484.253 735.679 484.12C736.372 483.96 737.092 483.88 737.839 483.88ZM758.824 506.6C757.037 506.6 755.45 506.28 754.064 505.64C752.704 505 751.637 504.093 750.864 502.92C750.117 501.747 749.744 500.4 749.744 498.88H755.424C755.45 499.52 755.61 500.067 755.904 500.52C756.224 500.947 756.65 501.267 757.184 501.48C757.717 501.667 758.33 501.76 759.024 501.76C759.584 501.76 760.09 501.68 760.544 501.52C760.997 501.36 761.37 501.12 761.664 500.8C761.957 500.453 762.104 500.053 762.104 499.6C762.104 498.933 761.757 498.44 761.064 498.12C760.37 497.8 759.33 497.52 757.944 497.28C757.064 497.147 756.33 497.013 755.744 496.88C755.184 496.747 754.504 496.52 753.704 496.2C752.93 495.853 752.304 495.467 751.824 495.04C751.37 494.613 750.97 494.027 750.624 493.28C750.277 492.533 750.104 491.667 750.104 490.68C750.104 488.653 750.904 487 752.504 485.72C754.104 484.44 756.197 483.8 758.784 483.8C761.397 483.8 763.49 484.467 765.064 485.8C766.664 487.107 767.464 488.84 767.464 491H761.904C761.904 489.293 760.824 488.44 758.664 488.44C757.757 488.44 757.05 488.627 756.544 489C756.037 489.373 755.784 489.88 755.784 490.52C755.784 490.787 755.85 491.04 755.984 491.28C756.144 491.493 756.317 491.667 756.504 491.8C756.717 491.933 757.037 492.067 757.464 492.2C757.89 492.307 758.25 492.387 758.544 492.44C758.837 492.493 759.277 492.573 759.864 492.68C760.37 492.787 760.73 492.867 760.944 492.92C761.157 492.947 761.517 493.013 762.024 493.12C762.53 493.227 762.904 493.333 763.144 493.44C763.41 493.52 763.757 493.64 764.184 493.8C764.637 493.96 764.97 494.133 765.184 494.32C765.424 494.48 765.704 494.68 766.024 494.92C766.37 495.16 766.637 495.427 766.824 495.72C767.01 496.013 767.197 496.333 767.384 496.68C767.57 497.027 767.69 497.427 767.744 497.88C767.824 498.333 767.864 498.813 767.864 499.32C767.864 501.533 767.037 503.307 765.384 504.64C763.73 505.947 761.544 506.6 758.824 506.6Z" fill="white"/>
</g>
<defs>
<clipPath id="clip0_179_2456">
<rect width="1185" height="720" fill="white"/>
</clipPath>
</defs>
</svg>
